<svg width="170" height="38" viewBox="0 0 170 38" fill="none" xmlns="http://www.w3.org/2000/svg">
<g filter="url(#filter0_ii_25_6)">
<path d="M92.3378 23.21C91.6178 23.21 91.0278 23.15 90.5678 23.03C90.1078 22.93 89.6778 22.72 89.2778 22.4V18.59H89.6078C90.0478 18.59 90.3578 18.57 90.5378 18.53C90.7378 18.47 90.8878 18.35 90.9878 18.17C91.0878 17.95 91.1478 17.63 91.1678 17.21C91.1878 16.91 91.1978 16.29 91.1978 15.35C91.1978 14.41 91.1878 13.79 91.1678 13.49C91.1478 13.05 91.0878 12.73 90.9878 12.53C90.9078 12.33 90.7578 12.21 90.5378 12.17C90.2578 12.13 89.9478 12.11 89.6078 12.11H89.2778V8.29999C89.6778 7.99999 90.1178 7.78999 90.5978 7.66999C91.0978 7.54999 91.6778 7.48999 92.3378 7.48999C93.1378 7.48999 93.8178 7.61999 94.3778 7.87999C94.9578 8.13999 95.4278 8.55999 95.7878 9.13999C96.4878 10.3 96.8378 12.35 96.8378 15.29C96.8378 18.21 96.4878 20.27 95.7878 21.47C95.0878 22.63 93.9378 23.21 92.3378 23.21ZM82.4678 7.69999H88.0178V28.97H82.4678V7.69999ZM99.8116 0.709991H105.362V23H99.8116V0.709991ZM108.482 15.77C108.482 14.71 108.472 14.01 108.452 13.67C108.412 13.11 108.362 12.74 108.302 12.56C108.222 12.36 108.082 12.24 107.882 12.2C107.682 12.14 107.362 12.11 106.922 12.11H106.622V8.44999C107.422 7.80999 108.442 7.48999 109.682 7.48999C111.482 7.48999 112.692 8.03999 113.312 9.13999C113.592 9.61999 113.782 10.21 113.882 10.91C113.982 11.59 114.032 12.43 114.032 13.43V23H108.482V15.77ZM125.998 15.38C125.998 14.36 125.988 13.68 125.968 13.34C125.948 12.86 125.888 12.5 125.788 12.26C125.688 12 125.528 11.84 125.308 11.78C125.068 11.72 124.738 11.69 124.318 11.69H123.898V7.45999H124.318C126.058 7.45999 127.418 7.59999 128.398 7.87999C129.378 8.13999 130.108 8.57999 130.588 9.19999C131.028 9.75999 131.308 10.51 131.428 11.45C131.568 12.37 131.638 13.68 131.638 15.38C131.638 16.96 131.588 18.19 131.488 19.07C131.408 19.93 131.198 20.64 130.858 21.2C130.478 21.82 129.908 22.29 129.148 22.61C128.388 22.91 127.338 23.1 125.998 23.18V15.38ZM124.318 23.24C122.578 23.24 121.218 23.11 120.238 22.85C119.258 22.59 118.528 22.15 118.048 21.53C117.608 20.97 117.318 20.23 117.178 19.31C117.058 18.39 116.998 17.08 116.998 15.38C116.998 13.82 117.048 12.6 117.148 11.72C117.248 10.84 117.468 10.11 117.808 9.52999C118.168 8.88999 118.728 8.41999 119.488 8.11999C120.248 7.79999 121.298 7.59999 122.638 7.51999V15.38C122.638 16.4 122.648 17.07 122.668 17.39C122.688 17.87 122.748 18.23 122.848 18.47C122.948 18.71 123.118 18.86 123.358 18.92C123.558 18.98 123.878 19.01 124.318 19.01H124.738V23.24H124.318ZM143.286 15.77C143.286 14.71 143.276 14.01 143.256 13.67C143.216 13.11 143.166 12.74 143.106 12.56C143.026 12.36 142.886 12.24 142.686 12.2C142.486 12.14 142.166 12.11 141.726 12.11H141.426V8.35999C142.206 7.77999 143.226 7.48999 144.486 7.48999C146.286 7.48999 147.496 8.03999 148.116 9.13999C148.396 9.61999 148.586 10.21 148.686 10.91C148.786 11.59 148.836 12.43 148.836 13.43V23H143.286V15.77ZM134.616 7.69999H140.166V23H134.616V7.69999ZM158.583 13.85H160.683C160.683 12.73 160.573 12.01 160.353 11.69C160.233 11.51 160.073 11.4 159.873 11.36C159.673 11.3 159.383 11.27 159.003 11.27H158.583V7.45999H159.003C160.723 7.45999 162.043 7.59999 162.963 7.87999C163.903 8.15999 164.593 8.61999 165.033 9.25999C165.433 9.81999 165.673 10.54 165.753 11.42C165.853 12.3 165.903 13.62 165.903 15.38V16.58H158.583V13.85ZM159.603 23.24C157.763 23.24 156.313 23.09 155.253 22.79C154.213 22.47 153.433 21.97 152.913 21.29C152.453 20.69 152.153 19.95 152.013 19.07C151.873 18.17 151.803 16.94 151.803 15.38C151.803 13.94 151.853 12.8 151.953 11.96C152.053 11.1 152.263 10.37 152.583 9.76999C152.943 9.10999 153.493 8.59999 154.233 8.23999C154.993 7.85999 156.023 7.61999 157.323 7.51999V16.58C157.323 17.26 157.353 17.75 157.413 18.05C157.473 18.33 157.613 18.54 157.833 18.68C158.073 18.84 158.443 18.93 158.943 18.95C159.583 18.99 160.263 19.01 160.983 19.01C162.263 19.01 163.193 18.98 163.773 18.92L165.303 18.8V22.67C164.503 22.91 163.403 23.07 162.003 23.15C161.323 23.21 160.523 23.24 159.603 23.24Z" fill="white"/>
</g>
<g filter="url(#filter1_ii_25_6)">
<path d="M4.29277 3.26V2.36H9.81277L18.4528 20.72L17.4628 23H13.5628L4.29277 3.26ZM21.2428 14.33H21.1228L19.1128 19.19L16.5328 13.67L21.2428 2.36H26.9428V23H21.2428V14.33ZM4.29277 6.23L9.81277 17.99V23H4.29277V6.23ZM36.9257 13.85H39.0257C39.0257 12.73 38.9157 12.01 38.6957 11.69C38.5757 11.51 38.4157 11.4 38.2157 11.36C38.0157 11.3 37.7257 11.27 37.3457 11.27H36.9257V7.46H37.3457C39.0657 7.46 40.3857 7.6 41.3057 7.88C42.2457 8.16 42.9357 8.62 43.3757 9.26C43.7757 9.82 44.0157 10.54 44.0957 11.42C44.1957 12.3 44.2457 13.62 44.2457 15.38V16.58H36.9257V13.85ZM37.9457 23.24C36.1057 23.24 34.6557 23.09 33.5957 22.79C32.5557 22.47 31.7757 21.97 31.2557 21.29C30.7957 20.69 30.4957 19.95 30.3557 19.07C30.2157 18.17 30.1457 16.94 30.1457 15.38C30.1457 13.94 30.1957 12.8 30.2957 11.96C30.3957 11.1 30.6057 10.37 30.9257 9.77C31.2857 9.11 31.8357 8.6 32.5757 8.24C33.3357 7.86 34.3657 7.62 35.6657 7.52V16.58C35.6657 17.26 35.6957 17.75 35.7557 18.05C35.8157 18.33 35.9557 18.54 36.1757 18.68C36.4157 18.84 36.7857 18.93 37.2857 18.95C37.9257 18.99 38.6057 19.01 39.3257 19.01C40.6057 19.01 41.5357 18.98 42.1157 18.92L43.6457 18.8V22.67C42.8457 22.91 41.7457 23.07 40.3457 23.15C39.6657 23.21 38.8657 23.24 37.9457 23.24ZM51.345 22.91C50.545 22.91 49.865 22.78 49.305 22.52C48.745 22.24 48.285 21.8 47.925 21.2C47.205 20.04 46.845 18.02 46.845 15.14C46.845 12.24 47.205 10.23 47.925 9.11C48.285 8.55 48.745 8.14 49.305 7.88C49.865 7.62 50.545 7.49 51.345 7.49C52.025 7.49 52.605 7.55 53.085 7.67C53.565 7.79 54.005 8.01 54.405 8.33V12.11H54.075C53.635 12.11 53.315 12.14 53.115 12.2C52.935 12.24 52.795 12.34 52.695 12.5C52.595 12.72 52.535 13.03 52.515 13.43C52.495 13.71 52.485 14.3 52.485 15.2C52.485 16.1 52.495 16.69 52.515 16.97C52.535 17.39 52.595 17.7 52.695 17.9C52.795 18.08 52.955 18.19 53.175 18.23C53.455 18.27 53.755 18.29 54.075 18.29H54.405V22.1C54.005 22.42 53.575 22.64 53.115 22.76C52.655 22.86 52.065 22.91 51.345 22.91ZM53.355 29.18C52.355 29.18 51.155 29.12 49.755 29L47.955 28.82V24.95H51.975C52.695 24.95 53.395 24.93 54.075 24.89C54.575 24.85 54.935 24.75 55.155 24.59C55.395 24.45 55.545 24.2 55.605 23.84C55.645 23.36 55.665 22.85 55.665 22.31V7.7H61.215V21.32C61.215 22.88 61.145 24.1 61.005 24.98C60.865 25.88 60.565 26.63 60.105 27.23C59.585 27.89 58.785 28.38 57.705 28.7C56.645 29.02 55.195 29.18 53.355 29.18ZM72.4687 13.52C72.4687 13 72.4487 12.63 72.4087 12.41C72.3687 12.19 72.2487 12.03 72.0487 11.93C71.8687 11.83 71.5287 11.76 71.0287 11.72C70.7287 11.7 70.0787 11.69 69.0787 11.69C68.1187 11.69 67.2287 11.73 66.4087 11.81L64.8187 11.9V8C66.6987 7.64 68.7287 7.46 70.9087 7.46C72.5887 7.46 73.8987 7.58 74.8387 7.82C75.7987 8.06 76.5187 8.44 76.9987 8.96C77.4187 9.44 77.6887 10.05 77.8087 10.79C77.9487 11.53 78.0187 12.56 78.0187 13.88V23H72.4687V13.52ZM68.0287 23.21C66.6487 23.21 65.6287 22.83 64.9687 22.07C64.3087 21.29 63.9787 20.12 63.9787 18.56C63.9787 17.6 64.0487 16.83 64.1887 16.25C64.3287 15.65 64.5687 15.18 64.9087 14.84C65.2487 14.48 65.7187 14.23 66.3187 14.09C66.9187 13.93 67.7087 13.85 68.6887 13.85L71.2087 13.91V16.58H70.9087C70.4487 16.58 70.1487 16.59 70.0087 16.61C69.6087 16.63 69.3987 16.82 69.3787 17.18C69.3587 17.3 69.3487 17.55 69.3487 17.93C69.3487 18.23 69.3587 18.46 69.3787 18.62C69.4187 18.78 69.4787 18.91 69.5587 19.01C69.6587 19.15 69.8087 19.23 70.0087 19.25C70.2887 19.29 70.5887 19.31 70.9087 19.31H71.2087V22.37C70.7687 22.71 70.2987 22.93 69.7987 23.03C69.3187 23.15 68.7287 23.21 68.0287 23.21Z" fill="#C3CDED"/>
</g>
<defs>
<filter id="filter0_ii_25_6" x="82.4678" y="0.709991" width="83.4352" height="32.26" filterUnits="userSpaceOnUse" color-interpolation-filters="sRGB">
<feFlood flood-opacity="0" result="BackgroundImageFix"/>
<feBlend mode="normal" in="SourceGraphic" in2="BackgroundImageFix" result="shape"/>
<feColorMatrix in="SourceAlpha" type="matrix" values="0 0 0 0 0 0 0 0 0 0 0 0 0 0 0 0 0 0 127 0" result="hardAlpha"/>
<feOffset dy="4"/>
<feGaussianBlur stdDeviation="2"/>
<feComposite in2="hardAlpha" operator="arithmetic" k2="-1" k3="1"/>
<feColorMatrix type="matrix" values="0 0 0 0 0 0 0 0 0 0 0 0 0 0 0 0 0 0 0.25 0"/>
<feBlend mode="normal" in2="shape" result="effect1_innerShadow_25_6"/>
<feColorMatrix in="SourceAlpha" type="matrix" values="0 0 0 0 0 0 0 0 0 0 0 0 0 0 0 0 0 0 127 0" result="hardAlpha"/>
<feOffset dy="4"/>
<feGaussianBlur stdDeviation="2"/>
<feComposite in2="hardAlpha" operator="arithmetic" k2="-1" k3="1"/>
<feColorMatrix type="matrix" values="0 0 0 0 0 0 0 0 0 0 0 0 0 0 0 0 0 0 0.25 0"/>
<feBlend mode="normal" in2="effect1_innerShadow_25_6" result="effect2_innerShadow_25_6"/>
</filter>
<filter id="filter1_ii_25_6" x="4.29277" y="2.36" width="73.7259" height="30.82" filterUnits="userSpaceOnUse" color-interpolation-filters="sRGB">
<feFlood flood-opacity="0" result="BackgroundImageFix"/>
<feBlend mode="normal" in="SourceGraphic" in2="BackgroundImageFix" result="shape"/>
<feColorMatrix in="SourceAlpha" type="matrix" values="0 0 0 0 0 0 0 0 0 0 0 0 0 0 0 0 0 0 127 0" result="hardAlpha"/>
<feOffset dy="4"/>
<feGaussianBlur stdDeviation="2"/>
<feComposite in2="hardAlpha" operator="arithmetic" k2="-1" k3="1"/>
<feColorMatrix type="matrix" values="0 0 0 0 0 0 0 0 0 0 0 0 0 0 0 0 0 0 0.25 0"/>
<feBlend mode="normal" in2="shape" result="effect1_innerShadow_25_6"/>
<feColorMatrix in="SourceAlpha" type="matrix" values="0 0 0 0 0 0 0 0 0 0 0 0 0 0 0 0 0 0 127 0" result="hardAlpha"/>
<feOffset dy="4"/>
<feGaussianBlur stdDeviation="2"/>
<feComposite in2="hardAlpha" operator="arithmetic" k2="-1" k3="1"/>
<feColorMatrix type="matrix" values="0 0 0 0 0 0 0 0 0 0 0 0 0 0 0 0 0 0 0.25 0"/>
<feBlend mode="normal" in2="effect1_innerShadow_25_6" result="effect2_innerShadow_25_6"/>
</filter>
</defs>
</svg>
